PathFileType	4	(X/Y/Z)	Run_200 02
DataRate	CameraRate	NumFrames	NumMarkers	Units	OrigDataRate	OrigDataStartFrame	OrigNumFrames
100	100	6	45	mm	100	113	137
Frame#	Time	RASI			LPSI			RTH1			RTH2			RTH3			LTH1			LTH2			LTH3			RTB1			RTB2			RTB3			RLMAL			RMMAL			LTB1			LTB2			LTB3			RCAL			RTOE			RMT5			LCAL			LTOE			LMT5			LACR			RACR			CLAV			C7			LPSH			RUA1			RUA2			RUA3			RLEL			RMEL			LUA1			LUA2			LUA3			LLEL			LMEL			RFAsuperior			RFAradius			LFAsuperior			LFAradius			LFAulna			LASI			RFAulna			RPSI			
		X1	Y1	Z1	X2	Y2	Z2	X3	Y3	Z3	X4	Y4	Z4	X5	Y5	Z5	X6	Y6	Z6	X7	Y7	Z7	X8	Y8	Z8	X9	Y9	Z9	X10	Y10	Z10	X11	Y11	Z11	X12	Y12	Z12	X13	Y13	Z13	X14	Y14	Z14	X15	Y15	Z15	X16	Y16	Z16	X17	Y17	Z17	X18	Y18	Z18	X19	Y19	Z19	X20	Y20	Z20	X21	Y21	Z21	X22	Y22	Z22	X23	Y23	Z23	X24	Y24	Z24	X25	Y25	Z25	X26	Y26	Z26	X27	Y27	Z27	X28	Y28	Z28	X29	Y29	Z29	X30	Y30	Z30	X31	Y31	Z31	X32	Y32	Z32	X33	Y33	Z33	X34	Y34	Z34	X35	Y35	Z35	X36	Y36	Z36	X37	Y37	Z37	X38	Y38	Z38	X39	Y39	Z39	X40	Y40	Z40	X41	Y41	Z41	X42	Y42	Z42	X43	Y43	Z43	X44	Y44	Z44	X45	Y45	Z45	

110	1.29	1063.645015	1090.596601	-391.119411	889.320295	1120.410471	-547.249861	950.08716	827.404628	-339.725627	1007.175396	750.583933	-375.438138	923.269505	661.4697609999999	-368.353907	985.386768	866.31224	-674.154782	1086.61664	778.498556	-677.839695	1061.542552	668.694419	-666.338449	860.883266	417.211673	-411.101194	791.338978	400.647768	-369.127276	729.099912	288.05274	-409.503603	625.088501	227.834892	-391.286878	656.701083	225.16113	-469.59366	1157.705854	447.54313	-640.931883	1085.088084	335.103444	-661.746384	1163.043834	256.04396	-622.695098	572.567605	253.930207	-455.481312	695.991606	76.246781	-430.436203	639.161931	108.885239	-360.535227	1090.696307	81.573415	-575.021896	1304.145883	148.429763	-597.455744	1256.844334	104.732685	-663.53966	1000.753547	1602.132043	-673.133676	1052.035154	1572.209863	-373.727928	1099.135534	1513.148645	-513.819085	985.802178	1607.78318	-516.113516	914.123476	1577.734649	-662.827115	1036.735715	1425.218347	-279.746895	961.929524	1371.093124	-263.968865	985.348812	1315.98203	-228.1992	1011.586738	1249.576615	-214.151259	944.865113	1236.735214	-279.096663	878.87533	1516.211647	-716.029004	814.7777610000001	1456.681422	-671.568013	788.3094180000001	1420.208095	-731.582729	754.835033	1345.658568	-752.37108	760.031328	1332.472637	-664.502802	1056.417322	1221.003755	-272.076598	1152.283001	1318.684344	-416.180188	833.563997	1284.553261	-740.165037	1003.646597	1332.300128	-732.767756	999.832433	1264.075593	-733.235307	1048.504114	1092.307693	-619.565506	1172.320932	1254.200784	-417.717414	894.714463	1119.971199	-456.844114	
111	1.3	1064.035786	1086.770836	-391.741215	889.516427	1116.231575	-547.298985	955.534342	821.104016	-341.854104	1013.220646	745.630324	-378.772777	931.048218	655.177776	-371.060585	985.979367	862.613745	-674.551	1086.791012	774.378994	-679.367158	1061.979782	664.860824	-665.5716609999999	864.695885	414.151835	-413.841558	794.654835	401.008707	-371.495444	726.850264	291.651772	-411.025972	619.905259	236.562936	-392.274013	651.828535	231.625834	-470.36494	1156.683828	443.080706	-640.651012	1082.724774	331.532745	-662.700644	1159.016709	251.429398	-623.266309	568.71241	263.740341	-457.295136	687.512144	79.42514	-428.87289	629.740932	117.588174	-360.435788	1083.596744	80.543504	-576.121606	1297.713333	141.527595	-598.556915	1249.144176	98.141885	-665.0383890000001	1001.940063	1597.271015	-676.124329	1050.617028	1569.131606	-375.64526	1098.588051	1509.679462	-514.995435	985.054633	1604.045654	-519.059599	915.177981	1572.442794	-666.967707	1033.664367	1423.48428	-280.077044	958.430907	1370.024337	-264.70962	981.277882	1315.256139	-227.848787	1006.948953	1248.637609	-212.90024	941.148542	1235.596462	-277.998896	881.095735	1509.556412	-720.147288	816.847224	1449.679772	-675.824989	791.665129	1412.364252	-735.81602	758.508594	1337.831528	-755.944038	763.886488	1324.484901	-668.601543	1052.035697	1217.161	-269.323924	1151.277679	1308.330481	-415.593939	838.839023	1278.147091	-743.99761	1007.853717	1329.094348	-735.800329	1005.518744	1260.761294	-735.635839	1049.253468	1088.545076	-620.185642	1170.53555	1243.4973	-414.427475	895.000948	1115.559503	-456.867674	
112	1.31	1064.08885	1082.064698	-392.353021	889.563207	1110.937364	-547.4041089999999	960.814102	814.0323959999999	-344.454233	1019.510207	740.103644	-381.676672	939.279144	648.036893	-373.861932	986.922816	857.895546	-674.70034	1087.942972	769.72704	-678.844122	1063.035362	660.340445	-664.524798	869.488484	410.694382	-416.361071	798.920389	401.366643	-373.644676	725.813487	295.23149	-412.078872	616.0483809999999	245.39033	-393.139926	648.561476	238.072048	-470.91877	1154.867706	437.203493	-639.960776	1078.839549	327.535797	-664.500884	1151.963514	245.501957	-623.8892	565.941931	272.718696	-459.407742	680.952588	84.90688299999999	-425.44576	622.023821	127.020188	-359.110284	1071.716111	80.450914	-577.608527	1287.545055	130.527394	-598.925962	1237.360615	87.74571400000001	-666.179355	1003.128081	1591.238081	-679.03989	1049.058485	1565.092009	-377.294974	1097.928215	1505.105541	-515.949715	984.338206	1599.398901	-521.7848760000001	916.294537	1565.784024	-671.225902	1030.060227	1420.854488	-280.112443	954.329241	1368.189343	-265.33293	976.395252	1313.826807	-227.261445	1001.328649	1247.06371	-211.275809	936.586618	1233.683564	-276.613995	883.572416	1501.336522	-724.753694	819.046204	1441.040065	-680.989175	795.597573	1402.93497	-741.105215	763.348486	1328.194535	-761.304314	768.127109	1314.726134	-674.023371	1046.799744	1212.305485	-265.724774	1150.224693	1295.796314	-413.82315	844.84487	1270.155884	-748.828844	1012.681036	1324.197934	-739.0192939999999	1011.830501	1255.809892	-738.338971	1049.94721	1083.950153	-621.200145	1168.514072	1230.723951	-409.212222	895.082903	1109.955569	-457.242483	
113	1.32	1063.861764	1076.465733	-392.850614	889.523915	1104.624252	-547.824081	965.777834	806.468268	-346.771791	1025.94983	734.101927	-383.87361	947.76812	640.238087	-376.54379	987.942754	852.053449	-675.1034090000001	1090.009527	764.748114	-676.753665	1064.638279	655.211832	-663.9132509999999	875.374409	406.876945	-418.570473	804.2390799999999	401.651856	-375.548294	726.31582	298.573014	-412.622277	614.011445	254.023857	-393.830339	647.229675	244.22466	-471.311936	1152.383602	430.260353	-639.299338	1073.458621	323.23839	-666.153982	1142.758151	238.805128	-624.129981	564.91059	280.997737	-461.557284	676.213899	92.146884	-420.873338	616.427492	136.921395	-356.738436	1056.735796	80.882847	-578.479779	1274.933485	116.743423	-599.145434	1222.569231	76.008443	-666.877203	1004.292053	1584.058487	-681.718738	1047.343601	1560.039768	-378.693916	1097.230089	1499.425011	-516.695245	983.5661710000001	1593.734366	-524.2284100000001	917.402609	1557.85385	-675.49389	1025.99607	1417.331885	-279.930453	949.6892309999999	1365.532419	-265.919107	970.783692	1311.667466	-226.474847	994.8021230000001	1244.794818	-209.261367	931.331025	1230.961465	-274.973688	886.2868120000001	1491.753468	-729.668461	821.451	1430.850638	-686.940776	800.08549	1392.103271	-747.2830310000001	769.482156	1316.889367	-768.3739409999999	772.741144	1303.359686	-680.532991	1040.677237	1206.6185	-261.408602	1148.993482	1281.228309	-410.69533	851.526263	1260.635976	-754.510148	1018.106359	1317.641871	-742.37667	1018.679838	1249.265687	-741.341486	1050.599264	1078.480612	-622.576102	1166.038587	1216.082399	-402.236196	895.118891	1103.461709	-457.934136	
114	1.33	1063.475723	1070.009452	-393.216252	889.246761	1097.616484	-548.728261	970.5278530000001	798.5027	-348.363413	1032.514634	727.588016	-385.317892	956.4266699999999	631.948907	-379.032221	988.973201	845.5973279999999	-676.196217	1092.403836	759.684227	-674.676813	1066.598352	649.850331	-664.101376	882.445141	402.767876	-420.428802	810.801982	401.592863	-377.267565	728.656203	301.431087	-412.921609	614.2868089999999	262.163246	-394.241802	647.936524	249.818055	-471.657566	1149.998745	423.231574	-638.840189	1067.576366	319.190614	-666.803362	1133.064917	232.370494	-623.586045	566.0577970000001	288.676983	-463.327054	673.285671	99.483138	-416.342143	613.561196	146.704567	-353.988081	1040.361743	81.52978	-578.313774	1261.023208	102.557388	-599.469957	1205.984545	66.206906	-667.039761	1005.405835	1575.778299	-684.053554	1045.458598	1554.082755	-379.800214	1096.618696	1492.741592	-517.239747	982.625224	1586.974416	-526.433298	918.480917	1548.703483	-679.645955	1021.512889	1412.929075	-279.546095	944.5709419999999	1362.015031	-266.526473	964.519119	1308.749259	-225.542652	987.4499980000001	1241.780812	-206.86895	925.598838	1227.431493	-273.223688	889.22194	1481.00875	-734.735831	824.138976	1419.253989	-693.520403	805.112132	1380.027684	-754.151142	777.0684230000001	1304.062318	-777.087801	777.847982	1290.593825	-687.9319840000001	1033.657709	1200.1688	-256.474255	1147.479655	1264.794349	-406.105114	858.858475	1249.71488	-760.841707	1024.126663	1309.492653	-745.83663	1026.012056	1241.166301	-744.609291	1050.93655	1072.155166	-624.0329369999999	1162.949103	1199.733663	-393.814145	894.845204	1096.349073	-458.785644	
115	1.34	1062.982806	1062.856098	-393.513732	888.280093	1090.432258	-549.8128359999999	975.173482	790.332509	-349.475301	1039.11689	720.705542	-386.118588	965.245266	623.401449	-381.405625	990.084865	839.58613	-678.025067	1094.409803	754.817885	-674.178025	1068.80072	644.900138	-665.011829	890.685567	398.586604	-421.956376	818.803904	400.919769	-378.888626	732.987875	303.694992	-413.351357	617.162871	269.575152	-394.270919	650.582703	254.741188	-471.946458	1148.536084	417.269616	-638.447915	1062.451209	316.271374	-666.563053	1124.130285	227.296288	-622.504153	569.472312	295.791978	-464.364706	672.301641	105.61187	-412.726039	613.884774	155.762016	-351.476162	1023.450977	82.3831	-577.658497	1246.254244	90.41821299999999	-599.7828960000001	1188.541277	60.213697	-666.778252	1006.357321	1566.629636	-686.104675	1043.37373	1547.510003	-380.526524	1096.179983	1485.364569	-517.594451	981.513719	1579.339159	-528.583815	919.581192	1538.357007	-683.588131	1016.624416	1407.666978	-278.963493	939.021534	1357.656237	-267.183751	957.683793	1305.094458	-224.531662	979.358475	1238.048832	-204.17898	919.468239	1223.196548	-271.539985	892.369994	1469.266517	-739.860687	827.163331	1406.434301	-700.517939	810.681546	1366.842648	-761.459651	785.831533	1290.06599	-786.83244	783.698979	1276.649361	-696.089953	1025.76735	1192.940459	-250.986917	1145.58399	1246.704671	-400.074502	866.857367	1237.594671	-767.640973	1030.787323	1299.814269	-749.368669	1033.840032	1231.529061	-748.124117	1050.551373	1065.229069	-625.197183	1159.145958	1181.813066	-384.155812	893.662693	1088.824784	-459.465629	
